<?xml version="1.0" encoding="UTF-8" standalone="no"?>
<!DOCTYPE svg PUBLIC "-//W3C//DTD SVG 1.1//EN" "http://www.w3.org/Graphics/SVG/1.1/DTD/svg11.dtd">
<svg version="1.1" xmlns="http://www.w3.org/2000/svg" xmlns:xlink="http://www.w3.org/1999/xlink" preserveAspectRatio="xMidYMid meet" viewBox="0 0 640 640" width="640" height="640"><defs><path d="M573.16 8.83L575.87 9.14L578.55 9.57L581.18 10.11L583.78 10.77L586.35 11.52L588.86 12.39L591.34 13.35L593.77 14.42L596.15 15.58L598.48 16.84L600.76 18.19L602.98 19.63L605.15 21.16L607.25 22.77L609.3 24.47L611.28 26.25L613.2 28.11L615.05 30.05L616.83 32.06L618.54 34.14L620.17 36.29L621.73 38.51L623.21 40.8L624.61 43.15L625.93 45.56L627.16 48.02L628.31 50.55L629.36 53.12L630.33 55.75L631.2 58.42L631.98 61.15L632.66 63.91L633.24 66.72L633.72 69.57L634.1 72.46L634.36 75.38L634.53 78.33L634.58 81.31L634.58 179.65L634.57 180.11L634.54 180.56L634.5 181.01L634.45 181.46L634.38 181.9L634.29 182.34L634.19 182.78L634.08 183.21L633.95 183.63L633.81 184.05L633.66 184.46L633.49 184.86L633.31 185.26L633.11 185.64L632.91 186.02L632.69 186.39L632.46 186.75L632.22 187.1L631.96 187.44L631.7 187.77L631.43 188.08L631.14 188.39L630.85 188.68L630.54 188.96L630.23 189.22L629.9 189.48L629.57 189.71L629.23 189.94L628.88 190.15L628.52 190.34L628.16 190.51L627.79 190.67L627.41 190.82L627.02 190.94L626.63 191.05L626.23 191.14L625.82 191.21L625.41 191.26L624.99 191.29L624.57 191.3L520.25 191.3L520.25 531.92L520.2 535.78L520 539.6L519.66 543.38L519.19 547.11L518.58 550.79L517.84 554.43L516.97 558.01L515.97 561.53L514.85 564.99L513.61 568.39L512.25 571.72L510.77 574.99L509.18 578.18L507.49 581.29L505.68 584.33L503.77 587.29L501.76 590.16L499.65 592.95L497.45 595.64L495.15 598.24L492.76 600.75L490.29 603.16L487.72 605.46L485.08 607.66L482.36 609.75L479.56 611.73L476.69 613.59L473.74 615.34L470.73 616.97L467.66 618.47L464.52 619.84L461.32 621.09L458.06 622.2L454.75 623.18L451.39 624.02L447.97 624.72L444.52 625.27L441.02 625.68L437.48 625.93L433.9 626.03L433.65 626.03L433.52 626.03L433.39 626.03L433.26 626.02L433.13 626.02L433 626.01L432.87 625.99L432.74 625.98L432.61 625.97L432.48 625.95L432.35 625.94L432.22 625.92L432.09 625.9L431.95 625.88L431.82 625.86L431.69 625.83L431.56 625.81L431.42 625.79L431.28 625.76L431.15 625.74L431.01 625.71L430.87 625.69L430.73 625.66L430.58 625.64L430.44 625.61L430.29 625.59L430.14 625.56L429.99 625.54L429.83 625.51L429.68 625.49L429.52 625.47L429.36 625.45L429.19 625.43L429.02 625.41L428.85 625.39L428.68 625.37L428.5 625.36L428.32 625.34L428.14 625.33L427.95 625.32L427.76 625.31L427.76 626.03L82.21 626.03L82.21 625.39L78.86 625.15L75.53 624.76L72.24 624.24L68.99 623.58L65.77 622.79L62.6 621.86L59.47 620.8L56.4 619.62L53.37 618.32L50.4 616.89L47.48 615.35L44.63 613.69L41.83 611.92L39.1 610.04L36.44 608.06L33.85 605.97L31.33 603.78L28.89 601.49L26.53 599.11L24.25 596.63L22.05 594.07L19.94 591.41L17.92 588.68L15.99 585.86L14.16 582.96L12.42 579.99L10.79 576.94L9.26 573.82L7.84 570.64L6.52 567.39L5.32 564.08L4.23 560.7L3.26 557.28L2.41 553.8L1.69 550.26L1.09 546.68L0.62 543.06L0.28 539.39L0.07 535.68L0 531.93L0 478.34L0.01 477.88L0.03 477.43L0.07 476.98L0.13 476.53L0.2 476.09L0.28 475.65L0.38 475.22L0.5 474.79L0.62 474.37L0.77 473.96L0.92 473.55L1.09 473.15L1.27 472.76L1.46 472.38L1.67 472.01L1.89 471.64L2.12 471.29L2.36 470.94L2.61 470.61L2.88 470.28L3.15 469.97L3.44 469.67L3.73 469.38L4.04 469.11L4.35 468.85L4.67 468.6L5 468.37L5.35 468.15L5.69 467.94L6.05 467.76L6.42 467.58L6.79 467.43L7.17 467.29L7.56 467.16L7.95 467.06L8.35 466.97L8.76 466.9L9.17 466.85L9.59 466.82L10.01 466.81L90.09 466.81L92.73 77.38L92.79 74.55L92.95 71.75L93.21 68.98L93.58 66.24L94.05 63.54L94.62 60.88L95.28 58.25L96.03 55.67L96.88 53.13L97.82 50.64L98.84 48.19L99.95 45.8L101.15 43.46L102.42 41.17L103.78 38.94L105.21 36.78L106.72 34.67L108.3 32.63L109.95 30.66L111.67 28.75L113.46 26.91L115.31 25.15L117.23 23.47L119.2 21.86L121.23 20.33L123.32 18.89L125.47 17.52L127.66 16.25L129.91 15.06L132.2 13.97L134.54 12.97L136.93 12.07L139.35 11.26L141.82 10.55L144.32 9.95L146.86 9.45L149.43 9.06L152.03 8.77L154.66 8.6L157.32 8.54L567.66 8.54L570.43 8.63L573.16 8.83ZM155.51 30.74L153.71 30.85L151.94 31.04L150.19 31.31L148.46 31.65L146.75 32.06L145.07 32.54L143.42 33.09L141.79 33.7L140.2 34.38L138.63 35.12L137.1 35.93L135.6 36.79L134.14 37.72L132.72 38.7L131.33 39.74L129.98 40.83L128.68 41.97L127.42 43.17L126.2 44.42L125.03 45.71L123.9 47.05L122.82 48.44L121.79 49.87L120.82 51.34L119.89 52.85L119.02 54.41L118.21 56L117.45 57.62L116.75 59.28L116.11 60.98L115.54 62.7L115.02 64.46L114.57 66.24L114.18 68.05L113.87 69.89L113.61 71.75L113.43 73.63L113.32 75.53L113.29 77.46L110.64 466.81L357.11 466.81L357.54 466.84L357.96 466.88L358.38 466.94L358.8 467.02L359.21 467.12L359.61 467.23L360 467.36L360.39 467.5L360.77 467.66L361.15 467.83L361.51 468.02L361.87 468.23L362.22 468.44L362.57 468.68L362.9 468.92L363.22 469.18L363.54 469.45L363.84 469.73L364.13 470.03L364.42 470.33L364.69 470.65L364.95 470.98L365.2 471.32L365.44 471.67L365.67 472.02L365.88 472.39L366.08 472.77L366.27 473.16L366.44 473.55L366.6 473.95L366.75 474.36L366.88 474.78L367 475.2L367.1 475.64L367.19 476.07L367.26 476.52L367.32 476.96L367.36 477.42L367.38 477.88L367.39 478.34L367.39 531.75L367.44 534.7L367.59 537.63L367.86 540.52L368.23 543.38L368.7 546.21L369.28 548.99L369.95 551.73L370.72 554.43L371.58 557.08L372.54 559.69L373.59 562.24L374.72 564.74L375.94 567.19L377.25 569.57L378.63 571.9L380.1 574.17L381.64 576.37L383.26 578.5L384.95 580.57L386.72 582.56L388.55 584.48L390.45 586.32L392.41 588.09L394.44 589.77L396.53 591.37L398.67 592.89L400.87 594.32L403.13 595.66L405.44 596.91L407.8 598.06L410.21 599.11L412.66 600.07L415.15 600.93L417.69 601.68L420.27 602.32L422.88 602.86L425.53 603.29L428.22 603.6L430.93 603.8L433.67 603.88L433.88 603.88L436.61 603.82L439.31 603.64L441.98 603.34L444.61 602.93L447.21 602.4L449.77 601.77L452.29 601.03L454.77 600.18L457.21 599.23L459.59 598.18L461.94 597.03L464.23 595.78L466.47 594.44L468.65 593.02L470.78 591.5L472.85 589.9L474.86 588.21L476.8 586.44L478.69 584.6L480.5 582.67L482.25 580.68L483.93 578.61L485.53 576.47L487.06 574.27L488.52 572L489.89 569.67L491.18 567.28L492.39 564.84L493.52 562.33L494.56 559.78L495.51 557.18L496.36 554.53L497.13 551.83L497.8 549.1L498.37 546.32L498.84 543.5L499.21 540.65L499.48 537.77L499.64 534.86L499.7 531.91L499.7 81.61L499.71 80.15L499.75 78.69L499.83 77.25L499.93 75.81L500.05 74.38L500.21 72.95L500.39 71.54L500.6 70.14L500.83 68.74L501.09 67.35L501.37 65.98L501.68 64.61L502.02 63.25L502.38 61.9L502.76 60.56L503.17 59.23L503.6 57.91L504.05 56.6L504.53 55.3L505.03 54.01L505.55 52.74L506.09 51.47L506.65 50.21L507.24 48.97L507.84 47.74L508.47 46.51L509.11 45.3L509.78 44.1L510.46 42.92L511.16 41.74L511.88 40.58L512.62 39.43L513.38 38.29L514.15 37.17L514.94 36.06L515.75 34.96L516.57 33.87L517.41 32.8L518.27 31.74L519.14 30.7L157.32 30.7L155.51 30.74ZM20.55 531.92L20.61 534.87L20.77 537.78L21.04 540.66L21.42 543.51L21.89 546.33L22.47 549.1L23.15 551.84L23.92 554.53L24.78 557.18L25.74 559.79L26.78 562.34L27.92 564.84L29.14 567.28L30.44 569.67L31.82 572L33.29 574.27L34.83 576.47L36.44 578.61L38.13 580.68L39.89 582.67L41.71 584.6L43.61 586.44L45.56 588.21L47.58 589.9L49.66 591.5L51.8 593.02L54 594.45L56.24 595.78L58.54 597.03L60.89 598.18L63.29 599.23L65.73 600.18L68.21 601.03L70.74 601.77L73.3 602.4L75.9 602.93L78.54 603.34L81.21 603.64L83.91 603.82L86.64 603.88L377.63 603.88L377.49 603.68L377.35 603.48L377.22 603.29L377.08 603.1L376.94 602.92L376.8 602.75L376.66 602.58L376.52 602.41L376.39 602.25L376.25 602.1L376.11 601.95L375.97 601.8L375.84 601.66L375.7 601.52L375.56 601.38L375.43 601.25L375.29 601.12L375.15 600.99L375.02 600.86L374.88 600.74L374.75 600.62L374.61 600.49L374.48 600.37L374.34 600.25L374.21 600.14L374.07 600.02L373.94 599.9L373.81 599.78L373.67 599.66L373.54 599.54L373.41 599.42L373.27 599.3L373.14 599.18L373.01 599.06L372.88 598.93L372.75 598.8L372.62 598.67L372.48 598.54L372.35 598.4L372.22 598.26L371.01 596.93L369.83 595.57L368.67 594.19L367.54 592.78L366.44 591.36L365.37 589.91L364.32 588.44L363.3 586.96L362.31 585.45L361.35 583.93L360.42 582.38L359.52 580.82L358.65 579.24L357.81 577.64L356.99 576.03L356.21 574.4L355.45 572.76L354.73 571.09L354.04 569.42L353.37 567.73L352.74 566.03L352.14 564.31L351.57 562.58L351.03 560.84L350.53 559.09L350.05 557.33L349.61 555.55L349.2 553.77L348.82 551.97L348.47 550.17L348.16 548.36L347.88 546.54L347.63 544.71L347.41 542.87L347.23 541.03L347.08 539.18L346.97 537.33L346.89 535.47L346.84 533.61L346.83 531.74L346.83 488.97L20.55 488.97L20.55 531.92ZM565.44 30.74L563.54 30.87L561.65 31.08L559.79 31.37L557.95 31.75L556.14 32.2L554.35 32.73L552.59 33.33L550.85 34L549.15 34.75L547.48 35.57L545.84 36.45L544.24 37.4L542.68 38.41L541.15 39.49L539.67 40.63L538.23 41.82L536.83 43.08L535.47 44.38L534.16 45.75L532.9 47.16L531.69 48.63L530.53 50.14L529.43 51.7L528.38 53.3L527.38 54.95L526.44 56.64L525.57 58.37L524.75 60.14L524 61.94L523.31 63.78L522.68 65.65L522.12 67.55L521.64 69.48L521.22 71.44L520.88 73.43L520.6 75.44L520.41 77.47L520.29 79.52L520.25 81.59L520.25 169.15L614.02 169.15L614.02 81.43L613.99 79.35L613.89 77.3L613.71 75.27L613.45 73.26L613.12 71.28L612.72 69.33L612.26 67.4L611.72 65.51L611.12 63.64L610.45 61.82L609.72 60.02L608.93 58.27L608.08 56.55L607.17 54.87L606.2 53.24L605.17 51.64L604.09 50.1L602.96 48.6L601.78 47.15L600.55 45.74L599.26 44.39L597.93 43.1L596.56 41.86L595.14 40.67L593.68 39.54L592.18 38.47L590.63 37.47L589.05 36.52L587.43 35.64L585.78 34.83L584.1 34.09L582.38 33.41L580.63 32.81L578.85 32.27L577.04 31.82L575.21 31.43L573.35 31.13L571.47 30.9L569.57 30.76L567.64 30.7L567.36 30.7L565.44 30.74Z" id="bbSF5UAnx"></path><path d="M300.33 82.73L300.56 82.74L300.79 82.76L301.02 82.79L301.25 82.82L301.48 82.86L301.7 82.9L301.93 82.95L302.16 83L302.38 83.06L302.61 83.13L302.83 83.2L303.05 83.27L303.28 83.36L303.49 83.45L303.71 83.54L303.93 83.64L304.14 83.74L304.36 83.85L385.03 126.62L385.29 126.77L385.54 126.92L385.78 127.08L386.02 127.25L386.26 127.42L386.49 127.6L386.72 127.79L386.94 127.98L387.15 128.18L387.36 128.39L387.56 128.6L387.76 128.82L387.95 129.04L388.13 129.27L388.31 129.5L388.48 129.74L388.65 129.98L388.81 130.23L388.96 130.48L389.11 130.74L389.24 131L389.38 131.27L389.5 131.54L389.62 131.81L389.73 132.09L389.84 132.37L389.94 132.65L390.03 132.94L390.11 133.23L390.18 133.52L390.25 133.81L390.31 134.11L390.37 134.41L390.41 134.72L390.45 135.02L390.48 135.33L390.5 135.63L390.51 135.94L390.51 136.26L390.51 136.57L390.51 215.56L390.48 217.36L390.41 219.18L390.28 221.01L390.11 222.85L389.89 224.69L389.62 226.55L389.31 228.41L388.95 230.27L388.55 232.14L388.1 234.01L387.62 235.87L387.09 237.73L386.51 239.59L385.9 241.44L385.25 243.28L384.56 245.11L383.84 246.92L383.07 248.73L382.27 250.51L381.44 252.28L380.57 254.03L379.67 255.76L378.73 257.46L377.76 259.14L376.76 260.8L375.73 262.42L374.68 264.02L373.59 265.58L372.47 267.11L371.33 268.6L370.16 270.06L368.97 271.47L367.75 272.85L366.51 274.18L365.24 275.47L363.96 276.71L362.65 277.91L361.32 279.05L359.97 280.14L358.61 281.18L305.78 320.21L305.52 320.4L305.26 320.58L304.99 320.75L304.71 320.91L304.44 321.06L304.16 321.2L303.88 321.33L303.59 321.45L303.31 321.56L303.02 321.66L302.72 321.75L302.43 321.83L302.14 321.9L301.84 321.97L301.54 322.02L301.24 322.06L300.94 322.1L300.64 322.12L300.34 322.14L300.04 322.14L299.74 322.14L299.44 322.12L299.14 322.1L298.84 322.06L298.54 322.02L298.24 321.97L297.94 321.9L297.65 321.83L297.36 321.75L297.06 321.66L296.77 321.56L296.49 321.45L296.2 321.33L295.92 321.2L295.64 321.06L295.37 320.91L295.09 320.75L294.82 320.58L294.56 320.4L294.3 320.21L241.31 281.17L239.95 280.13L238.6 279.04L237.27 277.9L235.96 276.7L234.67 275.46L233.41 274.18L232.17 272.84L230.95 271.47L229.75 270.05L228.58 268.6L227.44 267.1L226.33 265.58L225.24 264.01L224.18 262.42L223.15 260.79L222.15 259.14L221.18 257.46L220.24 255.76L219.34 254.03L218.47 252.28L217.63 250.51L216.83 248.73L216.07 246.92L215.34 245.11L214.65 243.28L214 241.44L213.39 239.59L212.81 237.73L212.28 235.87L211.79 234.01L211.35 232.14L210.94 230.27L210.59 228.41L210.27 226.55L210 224.69L209.78 222.85L209.61 221.01L209.49 219.18L209.41 217.36L209.38 215.56L209.38 136.45L209.38 136.14L209.38 135.82L209.4 135.52L209.42 135.21L209.44 134.9L209.48 134.6L209.53 134.29L209.58 133.99L209.64 133.7L209.71 133.4L209.78 133.11L209.86 132.82L209.95 132.53L210.05 132.25L210.15 131.97L210.27 131.69L210.38 131.42L210.51 131.15L210.64 130.88L210.78 130.62L210.93 130.37L211.08 130.11L211.24 129.86L211.4 129.62L211.58 129.38L211.75 129.15L211.94 128.92L212.13 128.7L212.32 128.48L212.53 128.27L212.73 128.07L212.95 127.87L213.17 127.67L213.39 127.48L213.62 127.3L213.86 127.13L214.1 126.96L214.35 126.8L214.6 126.65L214.85 126.5L295.38 83.85L295.59 83.74L295.8 83.64L296.02 83.54L296.24 83.45L296.46 83.36L296.68 83.27L296.9 83.2L297.12 83.13L297.35 83.06L297.57 83L297.8 82.95L298.03 82.9L298.26 82.86L298.49 82.82L298.71 82.79L298.94 82.76L299.17 82.74L299.41 82.73L299.64 82.72L299.87 82.72L300.1 82.72L300.33 82.73ZM229.94 215.56L229.96 216.82L230.01 218.09L230.1 219.38L230.23 220.68L230.4 222L230.59 223.32L230.83 224.65L231.09 225.98L231.39 227.32L231.71 228.67L232.07 230.01L232.46 231.36L232.88 232.7L233.33 234.04L233.81 235.38L234.31 236.71L234.84 238.03L235.4 239.35L235.98 240.65L236.58 241.94L237.21 243.22L237.87 244.48L238.54 245.73L239.24 246.96L239.96 248.17L240.7 249.35L241.46 250.52L242.24 251.66L243.04 252.77L243.85 253.86L244.68 254.91L245.53 255.94L246.4 256.94L247.28 257.9L248.17 258.82L249.08 259.71L250 260.57L250.93 261.38L251.87 262.15L252.83 262.88L299.83 297.65L347.01 262.87L347.96 262.14L348.91 261.37L349.84 260.56L350.76 259.71L351.67 258.82L352.56 257.9L353.45 256.94L354.31 255.94L355.16 254.91L355.99 253.86L356.81 252.77L357.61 251.66L358.39 250.52L359.15 249.35L359.89 248.17L360.62 246.96L361.32 245.73L361.99 244.49L362.65 243.22L363.28 241.95L363.89 240.65L364.47 239.35L365.03 238.04L365.57 236.71L366.07 235.38L366.55 234.04L367 232.7L367.42 231.36L367.81 230.01L368.17 228.67L368.5 227.32L368.8 225.98L369.06 224.65L369.3 223.32L369.49 222L369.66 220.69L369.79 219.38L369.88 218.09L369.94 216.82L369.96 215.56L369.96 143.46L299.95 106.13L229.94 143.36L229.94 215.56Z" id="cigLuHAzw"></path><path d="M331.54 169.36L331.93 169.4L332.32 169.46L332.71 169.53L333.1 169.62L333.49 169.72L333.87 169.85L334.25 169.98L334.62 170.14L334.99 170.31L335.35 170.5L335.71 170.7L336.06 170.92L336.41 171.15L336.74 171.41L337.07 171.67L337.4 171.96L337.71 172.26L338.02 172.58L338.31 172.91L338.59 173.24L338.85 173.59L339.1 173.95L339.33 174.31L339.55 174.69L339.76 175.07L339.94 175.45L340.12 175.84L340.28 176.24L340.42 176.64L340.55 177.05L340.66 177.46L340.76 177.88L340.84 178.3L340.91 178.72L340.96 179.14L341 179.56L341.02 179.99L341.03 180.41L341.02 180.84L341 181.26L340.96 181.69L340.91 182.11L340.84 182.53L340.76 182.95L340.66 183.36L340.54 183.77L340.42 184.18L340.27 184.58L340.11 184.98L339.94 185.37L339.75 185.76L339.55 186.14L339.33 186.51L339.1 186.88L338.85 187.23L338.58 187.58L338.31 187.92L338.01 188.25L297.13 232.33L296.99 232.48L296.84 232.63L296.69 232.78L296.53 232.92L296.38 233.07L296.22 233.2L296.06 233.34L295.9 233.47L295.74 233.59L295.57 233.72L295.4 233.84L295.23 233.95L295.06 234.06L294.88 234.17L294.71 234.28L294.53 234.38L294.35 234.47L294.17 234.57L293.99 234.66L293.8 234.74L293.62 234.82L293.43 234.9L293.24 234.98L293.05 235.05L292.86 235.11L292.66 235.17L292.47 235.23L292.28 235.28L292.08 235.33L291.88 235.38L291.68 235.42L291.49 235.46L291.29 235.49L291.08 235.52L290.88 235.54L290.68 235.56L290.48 235.58L290.27 235.59L290.07 235.6L289.87 235.6L289.84 235.6L289.64 235.6L289.43 235.59L289.23 235.58L289.02 235.56L288.82 235.54L288.62 235.52L288.42 235.49L288.22 235.45L288.02 235.42L287.82 235.37L287.62 235.33L287.42 235.28L287.23 235.22L287.03 235.16L286.84 235.1L286.65 235.03L286.46 234.96L286.27 234.89L286.08 234.81L285.89 234.73L285.71 234.64L285.53 234.55L285.34 234.46L285.17 234.36L284.99 234.26L284.81 234.15L284.64 234.04L284.46 233.93L284.29 233.81L284.13 233.69L283.96 233.56L283.79 233.44L283.63 233.3L283.47 233.17L283.32 233.03L283.16 232.89L283.01 232.74L282.86 232.59L282.71 232.44L282.56 232.28L261.87 209.75L261.58 209.42L261.3 209.08L261.04 208.73L260.79 208.37L260.56 208.01L260.35 207.63L260.14 207.25L259.96 206.87L259.79 206.47L259.63 206.07L259.49 205.67L259.36 205.26L259.25 204.85L259.15 204.44L259.07 204.02L259.01 203.6L258.96 203.18L258.92 202.75L258.9 202.33L258.89 201.9L258.9 201.48L258.93 201.05L258.97 200.63L259.02 200.21L259.09 199.79L259.17 199.37L259.27 198.95L259.39 198.54L259.52 198.14L259.66 197.73L259.82 197.34L260 196.95L260.19 196.56L260.39 196.18L260.61 195.81L260.85 195.45L261.1 195.09L261.36 194.74L261.64 194.41L261.94 194.08L262.24 193.76L262.56 193.46L262.88 193.18L263.22 192.92L263.56 192.67L263.9 192.43L264.26 192.21L264.61 192.01L264.98 191.83L265.35 191.66L265.72 191.51L266.1 191.37L266.48 191.25L266.87 191.15L267.26 191.06L267.65 190.99L268.04 190.93L268.43 190.9L268.83 190.87L269.22 190.87L269.62 190.88L270.01 190.9L270.4 190.95L270.79 191L271.18 191.08L271.57 191.17L271.96 191.28L272.34 191.4L272.71 191.54L273.09 191.7L273.45 191.87L273.82 192.06L274.17 192.26L274.53 192.48L274.87 192.72L275.21 192.97L275.54 193.24L275.86 193.53L276.17 193.83L276.48 194.15L289.9 208.76L323.48 172.57L323.79 172.25L324.1 171.95L324.42 171.67L324.75 171.4L325.09 171.15L325.44 170.92L325.79 170.7L326.15 170.49L326.51 170.31L326.88 170.14L327.26 169.98L327.63 169.84L328.01 169.72L328.4 169.62L328.79 169.53L329.18 169.46L329.57 169.4L329.96 169.36L330.36 169.33L330.75 169.33L331.15 169.33L331.54 169.36Z" id="b3E1VWnGD6"></path><path d="M428.6 351.94L429.02 351.98L429.43 352.05L429.83 352.13L430.23 352.22L430.62 352.34L431.01 352.47L431.39 352.61L431.76 352.77L432.13 352.95L432.48 353.14L432.83 353.34L433.17 353.56L433.51 353.79L433.83 354.04L434.14 354.3L434.45 354.57L434.74 354.85L435.03 355.15L435.3 355.45L435.56 355.77L435.82 356.1L436.05 356.44L436.28 356.78L436.5 357.14L436.7 357.51L436.89 357.89L437.07 358.27L437.23 358.67L437.38 359.07L437.51 359.48L437.63 359.89L437.74 360.32L437.83 360.74L437.9 361.18L437.96 361.62L438 362.07L438.03 362.52L438.04 362.98L438.03 363.43L438 363.89L437.96 364.33L437.9 364.77L437.83 365.21L437.74 365.64L437.63 366.06L437.51 366.48L437.38 366.89L437.23 367.29L437.07 367.68L436.89 368.07L436.7 368.44L436.5 368.81L436.28 369.17L436.05 369.52L435.82 369.86L435.56 370.19L435.3 370.5L435.03 370.81L434.74 371.1L434.45 371.39L434.14 371.66L433.83 371.92L433.51 372.16L433.17 372.39L432.83 372.61L432.48 372.82L432.13 373.01L431.76 373.18L431.39 373.34L431.01 373.49L430.62 373.62L430.23 373.73L429.83 373.83L429.43 373.91L429.02 373.97L428.6 374.02L428.18 374.04L427.76 374.05L181.12 374.05L180.7 374.04L180.28 374.02L179.87 373.97L179.46 373.91L179.05 373.83L178.65 373.73L178.26 373.62L177.88 373.49L177.5 373.34L177.12 373.18L176.76 373.01L176.4 372.82L176.05 372.61L175.71 372.39L175.38 372.16L175.06 371.92L174.74 371.66L174.44 371.39L174.14 371.1L173.86 370.81L173.58 370.5L173.32 370.19L173.07 369.86L172.83 369.52L172.6 369.17L172.39 368.81L172.18 368.44L171.99 368.07L171.82 367.68L171.66 367.29L171.51 366.89L171.37 366.48L171.25 366.06L171.15 365.64L171.06 365.21L170.98 364.77L170.92 364.33L170.88 363.89L170.86 363.43L170.85 362.98L170.86 362.52L170.88 362.07L170.92 361.62L170.98 361.18L171.06 360.74L171.15 360.32L171.25 359.89L171.37 359.48L171.51 359.07L171.66 358.67L171.82 358.27L171.99 357.89L172.18 357.51L172.39 357.14L172.6 356.78L172.83 356.44L173.07 356.1L173.32 355.77L173.58 355.45L173.86 355.15L174.14 354.85L174.44 354.57L174.74 354.3L175.06 354.04L175.38 353.79L175.71 353.56L176.05 353.34L176.4 353.14L176.76 352.95L177.12 352.77L177.5 352.61L177.88 352.47L178.26 352.34L178.65 352.22L179.05 352.13L179.46 352.05L179.87 351.98L180.28 351.94L180.7 351.91L181.12 351.9L427.76 351.9L428.18 351.91L428.6 351.94Z" id="i76eimD4XW"></path><path d="M428.6 403.16L429.02 403.21L429.43 403.27L429.83 403.35L430.23 403.45L430.62 403.56L431.01 403.69L431.39 403.84L431.76 404L432.13 404.17L432.48 404.36L432.83 404.57L433.17 404.79L433.51 405.02L433.83 405.26L434.14 405.52L434.45 405.79L434.74 406.08L435.03 406.37L435.3 406.68L435.56 407L435.82 407.32L436.05 407.66L436.28 408.01L436.5 408.37L436.7 408.74L436.89 409.11L437.07 409.5L437.23 409.89L437.38 410.29L437.51 410.7L437.63 411.12L437.74 411.54L437.83 411.97L437.9 412.41L437.96 412.85L438 413.3L438.03 413.75L438.04 414.2L438.03 414.66L438 415.11L437.96 415.56L437.9 416L437.83 416.44L437.74 416.87L437.63 417.29L437.51 417.7L437.38 418.11L437.23 418.51L437.07 418.91L436.89 419.29L436.7 419.67L436.5 420.04L436.28 420.4L436.05 420.74L435.82 421.08L435.56 421.41L435.3 421.73L435.03 422.04L434.74 422.33L434.45 422.61L434.14 422.88L433.83 423.14L433.51 423.39L433.17 423.62L432.83 423.84L432.48 424.04L432.13 424.23L431.76 424.41L431.39 424.57L431.01 424.71L430.62 424.84L430.23 424.96L429.83 425.05L429.43 425.13L429.02 425.2L428.6 425.24L428.18 425.27L427.76 425.28L181.12 425.28L180.7 425.27L180.28 425.24L179.87 425.2L179.46 425.13L179.05 425.05L178.65 424.96L178.26 424.84L177.88 424.71L177.5 424.57L177.12 424.41L176.76 424.23L176.4 424.04L176.05 423.84L175.71 423.62L175.38 423.39L175.06 423.14L174.74 422.88L174.44 422.61L174.14 422.33L173.86 422.04L173.58 421.73L173.32 421.41L173.07 421.08L172.83 420.74L172.6 420.4L172.39 420.04L172.18 419.67L171.99 419.29L171.82 418.91L171.66 418.51L171.51 418.11L171.37 417.7L171.25 417.29L171.15 416.87L171.06 416.44L170.98 416L170.92 415.56L170.88 415.11L170.86 414.66L170.85 414.2L170.86 413.75L170.88 413.3L170.92 412.85L170.98 412.41L171.06 411.97L171.15 411.54L171.25 411.12L171.37 410.7L171.51 410.29L171.66 409.89L171.82 409.5L171.99 409.11L172.18 408.74L172.39 408.37L172.6 408.01L172.83 407.66L173.07 407.32L173.32 407L173.58 406.68L173.86 406.37L174.14 406.08L174.44 405.79L174.74 405.52L175.06 405.26L175.38 405.02L175.71 404.79L176.05 404.57L176.4 404.36L176.76 404.17L177.12 404L177.5 403.84L177.88 403.69L178.26 403.56L178.65 403.45L179.05 403.35L179.46 403.27L179.87 403.21L180.28 403.16L180.7 403.14L181.12 403.13L427.76 403.13L428.18 403.14L428.6 403.16Z" id="a9hYUSGNv"></path></defs><g><g><g><use xlink:href="#bbSF5UAnx" opacity="1" fill="#ffffff" fill-opacity="1"></use><g><use xlink:href="#bbSF5UAnx" opacity="1" fill-opacity="0" stroke="#000000" stroke-width="1" stroke-opacity="0"></use></g></g><g><use xlink:href="#cigLuHAzw" opacity="1" fill="#ffffff" fill-opacity="1"></use><g><use xlink:href="#cigLuHAzw" opacity="1" fill-opacity="0" stroke="#000000" stroke-width="1" stroke-opacity="0"></use></g></g><g><use xlink:href="#b3E1VWnGD6" opacity="1" fill="#ffffff" fill-opacity="1"></use><g><use xlink:href="#b3E1VWnGD6" opacity="1" fill-opacity="0" stroke="#000000" stroke-width="1" stroke-opacity="0"></use></g></g><g><use xlink:href="#i76eimD4XW" opacity="1" fill="#ffffff" fill-opacity="1"></use><g><use xlink:href="#i76eimD4XW" opacity="1" fill-opacity="0" stroke="#000000" stroke-width="1" stroke-opacity="0"></use></g></g><g><use xlink:href="#a9hYUSGNv" opacity="1" fill="#ffffff" fill-opacity="1"></use><g><use xlink:href="#a9hYUSGNv" opacity="1" fill-opacity="0" stroke="#000000" stroke-width="1" stroke-opacity="0"></use></g></g></g></g></svg>